<svg width="16.333496" height="28.001465" viewBox="0 0 16.3335 28.0015" fill="none" xmlns="http://www.w3.org/2000/svg" xmlns:xlink="http://www.w3.org/1999/xlink">
	<desc>
			Created with Pixso.
	</desc>
	<defs/>
	<path id="Vector" d="M15.7534 0.208008C14.4082 0.0654297 13.0566 -0.00390625 11.7041 0C7.22021 0 4.43311 2.85596 4.43311 7.45361L4.43311 10.5747L0.666504 10.5747C0.489746 10.5747 0.320312 10.645 0.195312 10.77C0.0703125 10.895 0 11.0645 0 11.2417L0 16.375C0 16.5518 0.0703125 16.7212 0.195312 16.8462C0.320312 16.9712 0.489746 17.0415 0.666504 17.0415L4.43311 17.0415L4.43311 27.335C4.43311 27.5117 4.50342 27.6812 4.62842 27.8062C4.75342 27.9312 4.92334 28.0015 5.1001 28.0015L10.4038 28.0015C10.5811 28.0015 10.7505 27.9312 10.8755 27.8062C11.0005 27.6812 11.0708 27.5117 11.0708 27.335L11.0708 17.0415L14.8252 17.0415C14.9873 17.0415 15.1436 16.9829 15.2651 16.876C15.3867 16.7695 15.4658 16.6221 15.4868 16.4614L16.1494 11.3281C16.1616 11.2339 16.1538 11.1387 16.126 11.0479C16.0986 10.957 16.0518 10.873 15.9893 10.8018C15.9268 10.7305 15.8496 10.6733 15.7632 10.6343C15.6768 10.5952 15.583 10.5747 15.4878 10.5747L11.0708 10.5747L11.0708 7.96289C11.0708 6.66943 11.3306 6.12939 12.9482 6.12939L15.6665 6.12939C15.8433 6.12939 16.0132 6.05908 16.1382 5.93408C16.2632 5.80908 16.3335 5.63965 16.3335 5.46289L16.3335 0.869629C16.3335 0.70752 16.2744 0.55127 16.168 0.429688C16.061 0.308105 15.9136 0.229004 15.7534 0.208008ZM15 4.79492L12.9468 4.79639C10.0708 4.79639 9.7373 6.604 9.7373 7.96289L9.7373 11.2427C9.7373 11.4194 9.80762 11.5889 9.93213 11.7139C10.0566 11.8389 10.2261 11.9092 10.4028 11.9097L14.7305 11.9097L14.2388 15.7095L10.4038 15.7095C10.2271 15.7095 10.0576 15.7798 9.93262 15.9048C9.80762 16.0298 9.7373 16.1992 9.7373 16.376L9.7373 26.667L5.7666 26.667L5.7666 16.376C5.7666 16.1992 5.69629 16.0298 5.57129 15.9048C5.44629 15.7798 5.27686 15.7095 5.1001 15.7095L1.33447 15.7095L1.33447 11.9097L5.1001 11.9097C5.27686 11.9097 5.44629 11.8394 5.57129 11.7144C5.69629 11.5894 5.7666 11.4194 5.7666 11.2427L5.7666 7.45361C5.7666 3.62158 7.98682 1.3335 11.7041 1.3335C13.0493 1.3335 14.2642 1.40674 15 1.4707L15 4.79492Z" fill="#011C44" fill-opacity="1.000000" fill-rule="nonzero"/>
</svg>
