<svg xmlns="http://www.w3.org/2000/svg" aria-hidden="true" overflow="hidden" style="position:absolute;width:0;height:0"><defs><symbol id="icon-Facebook_icon" viewBox="0 0 19 32"><path d="M18.003.238A42.834 42.834 0 0 0 13.375 0C8.251 0 5.066 3.264 5.066 8.518v3.567H.762a.758.758 0 0 0-.761.762v5.866a.758.758 0 0 0 .761.761h4.304v11.763a.758.758 0 0 0 .762.761h6.061a.76.76 0 0 0 .762-.761V19.474h4.29a.763.763 0 0 0 .756-.663l.757-5.866a.753.753 0 0 0-.183-.601.759.759 0 0 0-.573-.259H12.65V9.1c0-1.478.297-2.095 2.146-2.095h3.106a.762.762 0 0 0 .762-.761V.995a.761.761 0 0 0-.663-.756zm-.861 5.242-2.346.002c-3.287 0-3.668 2.066-3.668 3.619v3.748c0 .202.08.396.223.538s.336.223.538.224h4.946l-.562 4.342H11.89a.758.758 0 0 0-.761.761v11.761H6.591V18.714a.758.758 0 0 0-.761-.761H1.527v-4.342H5.83a.758.758 0 0 0 .761-.762v-4.33c0-4.379 2.537-6.994 6.785-6.994 1.537 0 2.926.084 3.767.157v3.799z"/></symbol><symbol id="icon-Insta-icon" viewBox="0 0 32 32"><path d="M16 8.49a7.512 7.512 0 1 0 2.874 14.45A7.51 7.51 0 0 0 16 8.49zm0 13.061a5.555 5.555 0 0 1-5.444-6.634 5.557 5.557 0 0 1 7.568-4.045A5.55 5.55 0 0 1 21.551 16c-.004 1.471-.59 2.88-1.631 3.92s-2.45 1.626-3.92 1.631zM23.184 0H8.817A8.817 8.817 0 0 0 .001 8.816v14.367a8.817 8.817 0 0 0 8.816 8.816h14.367A8.817 8.817 0 0 0 32 23.183V8.816A8.817 8.817 0 0 0 23.184 0zm6.857 23.184c0 1.819-.723 3.562-2.008 4.849s-3.03 2.008-4.849 2.008H8.817a6.855 6.855 0 0 1-6.857-6.857V8.817A6.855 6.855 0 0 1 8.817 1.96h14.367c1.819 0 3.562.723 4.849 2.008s2.008 3.03 2.008 4.849v14.367zM26.122 7.51a1.637 1.637 0 0 1-1.008 1.508 1.628 1.628 0 0 1-1.779-.354 1.633 1.633 0 1 1 2.786-1.155z"/></symbol><symbol id="icon-Phone_icon" viewBox="0 0 28 32"><path d="m26.353 23.35-.183-.228c-1.449-1.831-2.659-2.784-3.698-2.91-.898-.123-1.767.499-2.69 1.137l-.987.617a2.193 2.193 0 0 1-.345.14c-.577.163-2.034.259-2.859-.496-.96-.878-2.449-2.486-3.607-3.891-1.107-1.454-2.323-3.267-2.958-4.409-.536-.967-.087-2.32.213-2.821.059-.098.137-.195.222-.291l.87-.804c.012-.013.018-.028.029-.04.009-.008.023-.006.032-.012.786-.663 1.598-1.346 1.709-2.223.131-1.03-.51-2.424-1.961-4.254l-.177-.228C9.065 1.485 7.707-.256 5.755.031 4.988.145 4.302.407 3.596.85c-.007.005-.011.013-.017.017s-.013.004-.019.008l-.984.729c-.01.006-.015.018-.025.027-.007.007-.018.008-.027.015-.114.096-.228.194-.341.295-.998.89-3.159 3.473-1.685 8.251.952 3.085 2.914 6.686 5.688 10.433l-.026.023 1.53 1.906.012-.01c3.009 3.559 6.07 6.309 8.875 7.975 1.872 1.112 3.508 1.48 4.854 1.48 1.771 0 3.039-.637 3.675-1.051l.4-.267c.045-.031.077-.075.11-.114l.871-.656c.01-.008.016-.02.025-.028.004-.004.011-.003.017-.007.62-.566 1.048-1.159 1.347-1.861.773-1.801-.611-3.525-1.526-4.666zm.491 4.224c-.232.546-.571 1.011-1.061 1.461l-1.296.975c-1.174.763-3.684 1.706-7.329-.459-2.805-1.665-5.894-4.481-8.933-8.142l-.822-1.039c-2.862-3.795-4.875-7.429-5.825-10.51-1.235-4.004.321-6.153 1.362-7.08.106-.096.211-.185.316-.273l.004-.004.944-.7c.574-.363 1.107-.566 1.719-.659C7.231.947 8.295 2.327 9.076 3.329l.183.232c1.622 2.045 1.778 3.018 1.727 3.415-.057.441-.726 1.005-1.318 1.502l-.083.07-.007.01-.013.007-.9.832c-.006.006-.008.013-.014.02s-.017.01-.023.017a3.155 3.155 0 0 0-.356.474c-.506.846-.983 2.595-.23 3.947.658 1.183 1.909 3.05 3.059 4.56 1.202 1.458 2.735 3.114 3.729 4.021.744.68 1.781.908 2.677.908.48 0 .921-.066 1.254-.16.176-.05.358-.124.545-.215.011-.006.017-.015.028-.022.006-.003.014-.002.02-.006l1.044-.653c.034-.023.056-.052.084-.08l.013.014c.643-.446 1.376-.97 1.835-.894.407.049 1.331.441 2.955 2.492l.187.235c.791.987 1.875 2.338 1.37 3.519z"/></symbol></defs></svg>