<svg aria-hidden="true" style="position: absolute; width: 0; height: 0; overflow: hidden;" version="1.1" xmlns="http://www.w3.org/2000/svg" xmlns:xlink="http://www.w3.org/1999/xlink">
<defs>
<symbol id="icon-Facebook_icon" viewBox="0 0 19 32">
<path d="M18.003 0.238c-1.537-0.163-3.082-0.242-4.628-0.238-5.124 0-8.309 3.264-8.309 8.518v3.567h-4.304c-0.202 0-0.396 0.080-0.538 0.223s-0.223 0.337-0.223 0.539v5.866c0 0.202 0.080 0.396 0.223 0.538s0.336 0.223 0.538 0.223h4.304v11.763c0 0.202 0.080 0.396 0.223 0.538s0.337 0.223 0.539 0.223h6.061c0.203 0 0.396-0.080 0.539-0.223s0.223-0.337 0.223-0.538v-11.763h4.29c0.185 0 0.364-0.067 0.503-0.189s0.229-0.29 0.253-0.474l0.757-5.866c0.014-0.108 0.005-0.216-0.027-0.32s-0.085-0.2-0.156-0.281c-0.071-0.081-0.16-0.147-0.258-0.191s-0.206-0.068-0.315-0.068h-5.048v-2.985c0-1.478 0.297-2.095 2.146-2.095h3.106c0.202 0 0.396-0.080 0.539-0.223s0.223-0.336 0.223-0.538v-5.249c0-0.185-0.068-0.364-0.189-0.503s-0.291-0.229-0.474-0.253zM17.142 5.48l-2.346 0.002c-3.287 0-3.668 2.066-3.668 3.619v3.748c0 0.202 0.080 0.396 0.223 0.538s0.336 0.223 0.538 0.224h4.946l-0.562 4.342h-4.383c-0.202 0-0.396 0.080-0.538 0.223s-0.223 0.336-0.223 0.538v11.761h-4.538v-11.761c0-0.202-0.080-0.396-0.223-0.538s-0.336-0.223-0.538-0.223h-4.303v-4.342h4.303c0.202 0 0.396-0.080 0.538-0.223s0.223-0.337 0.223-0.539v-4.33c0-4.379 2.537-6.994 6.785-6.994 1.537 0 2.926 0.084 3.767 0.157v3.799z"></path>
</symbol>
<symbol id="icon-Insta-icon" viewBox="0 0 32 32">
<path d="M16 8.49c-1.485 0-2.937 0.441-4.172 1.266s-2.198 1.998-2.767 3.371c-0.568 1.372-0.717 2.882-0.427 4.339s1.005 2.795 2.055 3.846 2.388 1.765 3.846 2.055c1.457 0.29 2.967 0.141 4.339-0.427s2.545-1.531 3.371-2.767c0.825-1.235 1.266-2.687 1.266-4.172 0-1.992-0.791-3.902-2.2-5.311s-3.319-2.2-5.311-2.2zM16 21.551c-1.098 0-2.171-0.325-3.084-0.936s-1.624-1.477-2.044-2.491c-0.42-1.015-0.531-2.131-0.316-3.207s0.743-2.066 1.519-2.842c0.777-0.776 1.766-1.305 2.842-1.519s2.193-0.104 3.207 0.316c1.014 0.42 1.881 1.131 2.491 2.044s0.936 1.987 0.936 3.084c-0.004 1.471-0.59 2.88-1.631 3.92s-2.45 1.626-3.92 1.631zM23.184 0h-14.367c-2.338 0-4.581 0.929-6.234 2.582s-2.582 3.896-2.582 6.234v14.367c0 2.338 0.929 4.581 2.582 6.234s3.896 2.582 6.234 2.582h14.367c2.338 0 4.581-0.929 6.234-2.582s2.582-3.896 2.582-6.234v-14.367c0-2.338-0.929-4.581-2.582-6.234s-3.896-2.582-6.234-2.582zM30.041 23.184c0 1.819-0.723 3.562-2.008 4.849s-3.030 2.008-4.849 2.008h-14.367c-1.819 0-3.563-0.723-4.849-2.008s-2.008-3.030-2.008-4.849v-14.367c0-1.819 0.723-3.563 2.008-4.849s3.030-2.008 4.849-2.008h14.367c1.819 0 3.562 0.723 4.849 2.008s2.008 3.030 2.008 4.849v14.367zM26.122 7.51c0 0.323-0.096 0.638-0.275 0.907s-0.435 0.478-0.733 0.601c-0.298 0.124-0.627 0.156-0.943 0.093s-0.608-0.219-0.836-0.447-0.384-0.519-0.447-0.836c-0.063-0.316-0.031-0.645 0.093-0.943s0.333-0.553 0.601-0.733c0.268-0.179 0.584-0.275 0.907-0.275 0.433 0 0.848 0.172 1.154 0.478s0.478 0.721 0.478 1.154z"></path>
</symbol>
<symbol id="icon-Phone_icon" viewBox="0 0 28 32">
<path d="M26.353 23.35l-0.183-0.228c-1.449-1.831-2.659-2.784-3.698-2.91-0.898-0.123-1.767 0.499-2.69 1.137l-0.987 0.617c-0.118 0.059-0.235 0.107-0.345 0.14-0.577 0.163-2.034 0.259-2.859-0.496-0.96-0.878-2.449-2.486-3.607-3.891-1.107-1.454-2.323-3.267-2.958-4.409-0.536-0.967-0.087-2.32 0.213-2.821 0.059-0.098 0.137-0.195 0.222-0.291l0.87-0.804c0.012-0.013 0.018-0.028 0.029-0.040 0.009-0.008 0.023-0.006 0.032-0.012 0.786-0.663 1.598-1.346 1.709-2.223 0.131-1.030-0.51-2.424-1.961-4.254l-0.177-0.228c-0.898-1.152-2.256-2.893-4.208-2.606-0.767 0.114-1.453 0.376-2.159 0.819-0.007 0.005-0.011 0.013-0.017 0.017s-0.013 0.004-0.019 0.008l-0.984 0.729c-0.010 0.006-0.015 0.018-0.025 0.027-0.007 0.007-0.018 0.008-0.027 0.015-0.114 0.096-0.228 0.194-0.341 0.295-0.998 0.89-3.159 3.473-1.685 8.251 0.952 3.085 2.914 6.686 5.688 10.433l-0.026 0.023 1.53 1.906 0.012-0.010c3.009 3.559 6.070 6.309 8.875 7.975 1.872 1.112 3.508 1.48 4.854 1.48 1.771 0 3.039-0.637 3.675-1.051l0.4-0.267c0.045-0.031 0.077-0.075 0.11-0.114l0.871-0.656c0.010-0.008 0.016-0.020 0.025-0.028 0.004-0.004 0.011-0.003 0.017-0.007 0.62-0.566 1.048-1.159 1.347-1.861 0.773-1.801-0.611-3.525-1.526-4.666zM26.844 27.574c-0.232 0.546-0.571 1.011-1.061 1.461l-1.296 0.975c-1.174 0.763-3.684 1.706-7.329-0.459-2.805-1.665-5.894-4.481-8.933-8.142l-0.822-1.039c-2.862-3.795-4.875-7.429-5.825-10.51-1.235-4.004 0.321-6.153 1.362-7.080 0.106-0.096 0.211-0.185 0.316-0.273l0.004-0.004 0.944-0.7c0.574-0.363 1.107-0.566 1.719-0.659 1.308-0.197 2.372 1.183 3.153 2.185l0.183 0.232c1.622 2.045 1.778 3.018 1.727 3.415-0.057 0.441-0.726 1.005-1.318 1.502l-0.083 0.070c-0.003 0.003-0.005 0.007-0.007 0.010-0.004 0.003-0.009 0.005-0.013 0.007l-0.9 0.832c-0.006 0.006-0.008 0.013-0.014 0.020s-0.017 0.010-0.023 0.017c-0.139 0.156-0.259 0.312-0.356 0.474-0.506 0.846-0.983 2.595-0.23 3.947 0.658 1.183 1.909 3.050 3.059 4.56 1.202 1.458 2.735 3.114 3.729 4.021 0.744 0.68 1.781 0.908 2.677 0.908 0.48 0 0.921-0.066 1.254-0.16 0.176-0.050 0.358-0.124 0.545-0.215 0.011-0.006 0.017-0.015 0.028-0.022 0.006-0.003 0.014-0.002 0.020-0.006l1.044-0.653c0.034-0.023 0.056-0.052 0.084-0.080l0.013 0.014c0.643-0.446 1.376-0.97 1.835-0.894 0.407 0.049 1.331 0.441 2.955 2.492l0.187 0.235c0.791 0.987 1.875 2.338 1.37 3.519z"></path>
</symbol>
</defs>
</svg>
